<svg xmlns="http://www.w3.org/2000/svg" width="220" height="52" viewBox="0 0 220 52" role="img" aria-labelledby="title">
  <title id="title">BhokLagyao</title>
  <rect width="52" height="52" rx="16" fill="#161914"/>
  <path d="M15 17h22a2 2 0 0 1 2 2v2H13v-2a2 2 0 0 1 2-2Z" fill="#fff"/>
  <path d="M17 25h18l-2.1 10.5a4 4 0 0 1-3.9 3.2h-6a4 4 0 0 1-3.9-3.2L17 25Z" fill="#F26722"/>
  <path d="M21 14c0-2.6 2.1-4.7 4.7-4.7h.6c2.6 0 4.7 2.1 4.7 4.7" fill="none" stroke="#fff" stroke-width="3" stroke-linecap="round"/>
  <text x="65" y="33" fill="#161914" font-family="Poppins, Arial, sans-serif" font-size="25" font-weight="800" letter-spacing="0">BhokLagyao</text>
</svg>
